<!-- empty-apply-abstract.svg -->
<svg xmlns="http://www.w3.org/2000/svg" width="1600" height="640" viewBox="0 0 1600 640">
  <defs>
    <linearGradient id="g1" x1="0" y1="0" x2="1" y2="1">
      <stop offset="0" stop-color="#4F46E5" stop-opacity="0.14"/>
      <stop offset="1" stop-color="#06B6D4" stop-opacity="0.10"/>
    </linearGradient>
    <linearGradient id="g2" x1="0" y1="1" x2="1" y2="0">
      <stop offset="0" stop-color="#4F46E5" stop-opacity="0.10"/>
      <stop offset="1" stop-color="#06B6D4" stop-opacity="0.06"/>
    </linearGradient>
    <radialGradient id="glow" cx="75%" cy="35%" r="60%">
      <stop offset="0" stop-color="#4F46E5" stop-opacity="0.16"/>
      <stop offset="1" stop-color="#4F46E5" stop-opacity="0"/>
    </radialGradient>
    <pattern id="dots" width="24" height="24" patternUnits="userSpaceOnUse">
      <circle cx="2" cy="2" r="2" fill="#111827" opacity="0.06"/>
    </pattern>
  </defs>

  <rect width="100%" height="100%" fill="#F9FAFB"/>
  <rect width="100%" height="100%" fill="url(#dots)"/>

  <!-- 大面积柔和块 -->
  <path d="M0,520 C260,460 420,520 700,470 C980,420 1140,520 1600,420 L1600,640 L0,640 Z" fill="url(#g1)"/>
  <path d="M0,140 C220,80 420,160 720,120 C1040,80 1220,160 1600,100 L1600,0 L0,0 Z" fill="url(#g2)"/>

  <!-- 光晕 -->
  <circle cx="1150" cy="200" r="380" fill="url(#glow)"/>
  <circle cx="250" cy="460" r="260" fill="url(#glow)" opacity="0.6"/>

  <!-- 小装饰图形（简历、对勾、放大镜抽象） -->
  <g opacity="0.25" fill="#4F46E5">
    <rect x="180" y="120" rx="10" ry="10" width="110" height="140" fill="#FFFFFF" opacity="0.8"/>
    <circle cx="220" cy="160" r="18"/>
    <rect x="205" y="190" width="60" height="10" rx="5"/>
    <rect x="205" y="208" width="60" height="10" rx="5"/>
  </g>

  <g opacity="0.20" stroke="#06B6D4" stroke-width="10" fill="none">
    <path d="M1330 160 l30 30 l50 -60" stroke-linecap="round" stroke-linejoin="round"/>
  </g>

  <g opacity="0.18" stroke="#4F46E5" stroke-width="10" fill="none">
    <circle cx="980" cy="410" r="40"/>
    <line x1="1010" y1="440" x2="1050" y2="480" stroke-linecap="round"/>
  </g>
</svg>
